<?xml version="1.0" standalone="no"?>
<!DOCTYPE svg PUBLIC "-//W3C//DTD SVG 20010904//EN"
 "http://www.w3.org/TR/2001/REC-SVG-20010904/DTD/svg10.dtd">
<svg version="1.0" xmlns="http://www.w3.org/2000/svg"
 width="473.000000pt" height="474.000000pt" viewBox="0 0 473.000000 474.000000"
 preserveAspectRatio="xMidYMid meet">
<metadata>
Created by potrace 1.16, written by Peter Selinger 2001-2019
</metadata>
<g transform="translate(0.000000,474.000000) scale(0.100000,-0.100000)"
fill="#000000" stroke="none">
<path d="M1394 3977 c-3 -8 -4 -54 -2 -103 4 -118 19 -122 82 -21 25 40 46 81
46 90 0 11 -17 21 -52 32 -63 18 -67 18 -74 2z"/>
<path d="M1019 3920 c-70 -37 -70 -44 2 -116 61 -62 93 -78 101 -52 8 24 -38
183 -53 185 -8 1 -30 -6 -50 -17z"/>
<path d="M1698 3696 c-62 -69 -72 -96 -35 -96 27 0 166 36 175 45 11 11 -49
115 -67 115 -9 -1 -42 -29 -73 -64z"/>
<path d="M1200 3683 c-63 -23 -151 -113 -173 -177 -9 -27 -17 -75 -17 -106 0
-117 51 -199 174 -278 150 -95 237 -164 226 -177 -13 -16 1 -28 23 -19 11 4
28 -17 62 -76 51 -88 72 -113 86 -105 4 3 22 -1 38 -10 68 -34 121 -9 121 58
0 21 5 46 12 56 10 16 4 32 -41 107 -45 75 -51 92 -41 107 12 20 7 32 -13 32
-13 0 -21 49 -36 239 -6 70 -16 145 -22 166 -20 65 -78 131 -148 167 -54 29
-72 33 -134 32 -40 0 -92 -8 -117 -16z m205 -30 c70 -24 139 -94 158 -164 21
-74 51 -409 38 -422 -7 -7 -13 -4 -18 9 -4 10 -35 96 -69 189 -55 152 -64 170
-85 173 -29 3 -192 -96 -197 -119 -2 -9 51 -84 118 -167 164 -205 161 -218
-22 -89 -65 45 -141 98 -171 118 -78 54 -112 121 -112 219 0 65 4 82 31 130
65 116 201 167 329 123z m89 -433 l65 -175 -22 -17 c-12 -10 -25 -17 -29 -15
-14 4 -240 298 -234 304 17 17 151 92 154 85 1 -4 31 -86 66 -182z m121 -211
c4 -5 0 -18 -9 -28 -25 -27 -20 -44 10 -37 17 5 23 3 19 -4 -3 -5 -2 -10 3
-10 4 0 16 -16 25 -36 11 -22 22 -33 30 -29 27 14 -45 -41 -81 -62 -37 -21
-39 -21 -50 -3 -10 16 -6 22 33 44 30 18 42 31 39 41 -8 20 -12 19 -59 -10
l-39 -24 -29 46 c-32 51 -32 52 40 94 54 32 59 33 68 18z"/>
<path d="M750 3594 c-6 -14 -13 -43 -16 -65 l-7 -39 102 0 c55 0 101 2 101 4
0 2 3 11 6 19 4 10 -17 29 -69 61 -40 25 -81 46 -91 46 -9 0 -21 -12 -26 -26z"/>
<path d="M2466 3534 c-9 -8 -16 -24 -16 -35 0 -10 44 -66 98 -125 53 -58 98
-109 99 -112 1 -4 -26 -61 -60 -127 l-62 -120 -260 -5 c-236 -5 -263 -7 -293
-25 -117 -71 -102 -347 22 -401 28 -12 20 -13 -92 -14 -142 0 -170 -9 -198
-67 -15 -31 -19 -60 -19 -153 0 -183 30 -220 176 -220 l82 0 -40 -29 c-54 -39
-73 -90 -73 -194 0 -98 25 -158 79 -194 l34 -23 -71 0 -70 0 -53 66 c-28 36
-52 73 -53 83 -2 27 -177 250 -202 257 -12 3 -38 28 -59 56 -52 68 -77 83
-107 67 -28 -15 -340 -258 -350 -273 -17 -25 -5 -61 37 -115 25 -31 45 -66 45
-77 0 -23 173 -246 199 -256 10 -3 122 -139 249 -301 l231 -294 226 -78 c124
-42 229 -75 232 -71 4 3 -4 112 -16 242 -12 130 -20 238 -18 240 2 2 276 4
608 4 689 0 655 -4 697 82 19 38 24 64 24 135 1 105 -15 162 -54 200 -28 27
-34 28 -141 31 l-112 4 3 39 c4 34 1 41 -16 46 -26 6 -36 61 -30 169 3 65 7
78 27 93 20 15 23 24 18 55 l-6 36 170 0 169 0 0 38 c0 25 -7 43 -20 55 -18
15 -20 29 -20 119 l0 103 33 26 c21 17 55 70 95 147 l62 120 43 -5 c23 -3 56
-8 72 -12 l30 -7 -4 -165 c-3 -146 -6 -165 -22 -177 -22 -15 -25 -62 -7 -91 9
-15 7 -34 -11 -96 -16 -55 -19 -81 -12 -88 6 -6 40 -13 76 -15 81 -5 84 1 58
107 -17 66 -18 81 -6 96 19 27 16 50 -12 83 -24 29 -25 34 -25 187 l0 158 56
-7 c94 -11 122 35 62 103 -112 128 -555 599 -578 614 -21 13 -132 31 -446 72
-231 30 -429 55 -441 55 -12 0 -29 -7 -37 -16z m164 -514 c41 -64 145 -160
239 -222 85 -56 269 -147 348 -173 58 -18 58 -8 8 -90 l-15 -25 -73 27 c-278
100 -574 326 -577 440 0 18 29 93 36 93 1 0 16 -22 34 -50z m-56 -158 c46 -58
125 -131 180 -167 23 -15 25 -20 12 -24 -8 -4 -173 -8 -366 -10 l-350 -3 0
131 0 131 239 0 240 0 45 -58z m-414 -342 c-212 -3 -386 -7 -388 -8 -2 -1 -12
-21 -22 -44 -27 -59 -27 -177 0 -235 10 -24 20 -44 22 -45 2 -1 176 -5 388 -8
l385 -5 -380 -3 c-424 -2 -413 -4 -436 66 -16 47 -15 177 0 225 23 69 13 67
436 65 l380 -3 -385 -5z m326 -170 l0 -130 -333 0 -333 0 0 130 0 130 333 0
333 0 0 -130z m785 104 c31 -8 73 -14 94 -14 21 0 34 -4 30 -10 -3 -6 4 -10
17 -10 18 0 20 2 8 10 -13 8 -12 10 3 10 15 0 17 -11 17 -87 0 -49 3 -98 6
-110 l6 -23 -456 0 c-425 0 -457 1 -464 18 -9 23 -9 202 0 225 8 18 24 18 345
12 236 -5 355 -11 394 -21z m-1892 -276 c12 -12 33 -39 48 -61 l27 -39 -29
-25 c-17 -13 -99 -79 -184 -145 l-155 -121 -31 38 c-18 21 -40 50 -49 66 -20
34 -25 28 149 164 66 52 134 105 150 119 37 31 49 32 74 4z m1726 -270 l0
-128 -562 0 -563 0 0 123 c0 68 2 126 4 128 2 2 256 4 563 4 l558 0 0 -127z
m-1636 26 c28 -37 51 -70 51 -74 0 -3 -45 -42 -100 -85 -55 -42 -100 -81 -100
-85 0 -28 18 -17 183 114 l38 30 25 -25 25 -26 -162 -129 c-89 -71 -165 -127
-168 -126 -10 6 -111 135 -111 141 1 3 54 46 118 94 172 129 178 135 166 147
-8 8 -51 -20 -155 -103 l-144 -115 -22 21 c-13 11 -23 26 -23 32 0 6 32 36 72
66 39 29 110 84 156 122 46 37 88 67 92 67 4 0 31 -30 59 -66z m1392 -324 c15
-27 19 -56 18 -135 0 -119 -13 -165 -52 -183 -16 -8 -31 -11 -34 -8 -3 3 2 26
11 52 23 68 21 190 -4 256 -11 29 -20 54 -20 56 0 2 14 2 31 0 24 -2 36 -11
50 -38z m503 7 c19 -25 21 -42 21 -145 0 -132 -14 -175 -61 -186 -14 -4 -28
-5 -30 -3 -2 2 3 21 13 43 27 61 25 215 -4 277 l-22 48 31 -3 c20 -2 38 -13
52 -31z m-780 -49 c3 -13 6 -69 6 -125 l0 -103 -257 0 -258 0 -72 93 c-39 50
-84 107 -98 125 l-26 32 349 0 350 0 6 -22z m-443 -487 l4 -75 -80 -68 c-44
-37 -88 -70 -97 -73 -10 -4 -50 5 -90 20 -40 14 -79 28 -87 30 -13 5 42 52
239 202 108 82 105 83 111 -36z"/>
<path d="M1738 3333 c-48 -3 -58 -7 -58 -22 0 -22 143 -116 164 -108 15 6 40
86 34 113 -3 21 -32 24 -140 17z"/>
<path d="M855 3207 c-61 -17 -80 -26 -79 -39 2 -22 52 -108 63 -108 12 0 136
129 135 141 -3 26 -5 29 -21 28 -10 0 -54 -10 -98 -22z"/>
<path d="M1135 2965 c-26 -42 -44 -82 -41 -90 5 -14 65 -35 102 -35 28 0 30 8
26 113 -5 115 -21 117 -87 12z"/>
</g>
</svg>
